<svg width="143" height="31" viewBox="0 0 143 31" fill="none" xmlns="http://www.w3.org/2000/svg">
<rect width="27.3235" height="13.6656" rx="6.83282" fill="#A359FF"/>
<path d="M0 20.4926C0 16.719 3.05916 13.6598 6.83282 13.6598H13.6421V27.3255H6.83282C3.05916 27.3255 0 24.2663 0 20.4926Z" fill="#A359FF"/>
<path d="M23.1393 30.0343C19.3656 30.0343 16.3065 26.9751 16.3065 23.2015L16.3065 16.3921L23.4828 16.3921C27.0667 16.3921 29.9721 19.2975 29.9721 22.8815L29.9721 23.2015C29.9721 26.9751 26.9129 30.0343 23.1393 30.0343Z" fill="#A359FF"/>
<path d="M40.4186 20.5172H38.1006V9.56765H45.1766V11.5807H40.4186V14.3409H44.4294V16.3387H40.4186V20.5172ZM49.0403 10.4827C49.0403 11.1994 48.4608 11.7332 47.6221 11.7332C46.7986 11.7332 46.2191 11.1994 46.2191 10.4827C46.2191 9.7354 46.7986 9.20165 47.6221 9.20165C48.4608 9.20165 49.0403 9.7354 49.0403 10.4827ZM48.7048 20.5172H46.5851V12.3737H48.7048V20.5172ZM54.0529 23.6129C51.8569 23.6129 50.3929 22.4234 50.3014 20.5477H52.3449C52.4364 21.4779 53.0312 21.9659 54.0377 21.9659C55.2119 21.9659 55.8219 21.3407 55.8219 20.1664V18.9769C55.3797 19.7547 54.5409 20.2122 53.5497 20.2122C51.5519 20.2122 50.0574 18.5194 50.0574 16.2167C50.0574 13.8529 51.4604 12.2212 53.4734 12.2212C54.5714 12.2212 55.3949 12.6482 55.9897 13.4869V12.3737H57.9264V20.1359C57.9264 22.3014 56.4624 23.6129 54.0529 23.6129ZM52.1772 16.2167C52.1772 17.5434 52.8634 18.3822 53.9614 18.3822C55.0747 18.3822 55.8067 17.5129 55.8067 16.2319C55.8067 14.9052 55.0747 14.0512 53.9614 14.0512C52.8787 14.0512 52.1772 14.8899 52.1772 16.2167ZM61.9592 20.5172H59.8395V12.3737H61.7915V13.5327C62.3862 12.7092 63.1487 12.2212 64.2315 12.2212C65.3447 12.2212 66.1987 12.7397 66.6105 13.6699C67.251 12.7702 68.0745 12.2212 69.2945 12.2212C70.9415 12.2212 72.0547 13.3039 72.0547 15.2559V20.5172H69.9502V15.9269C69.9502 14.7832 69.4622 14.0969 68.532 14.0969C67.6932 14.0969 67.007 14.7527 67.007 15.9727V20.5172H64.9025V15.9269C64.9025 14.7832 64.4145 14.0969 63.4842 14.0969C62.6302 14.0969 61.9592 14.7527 61.9592 15.9727V20.5172ZM78.7178 20.5172V19.5107C78.184 20.2732 77.3758 20.6697 76.2625 20.6697C74.5698 20.6697 73.4413 19.6784 73.4413 18.1534C73.4413 16.5674 74.7223 15.7134 77.1013 15.7134C77.5588 15.7134 77.9553 15.7439 78.4585 15.8049V15.3169C78.4585 14.4019 77.94 13.8682 77.0555 13.8682C76.1405 13.8682 75.5915 14.4019 75.5153 15.3169H73.609C73.731 13.4412 75.0883 12.2212 77.0555 12.2212C79.1905 12.2212 80.441 13.3954 80.441 15.3932V20.5172H78.7178ZM75.439 18.0924C75.439 18.7787 75.927 19.2057 76.72 19.2057C77.8028 19.2057 78.4585 18.6109 78.4585 17.6654V17.0859C77.9553 17.0097 77.6045 16.9792 77.2385 16.9792C76.0338 16.9792 75.439 17.3604 75.439 18.0924ZM89.679 16.9487H87.9557V20.5172H85.6377V9.56765H89.679C92.3477 9.56765 94.01 10.8334 94.01 13.2124C94.01 15.5914 92.3477 16.9487 89.679 16.9487ZM89.6637 11.5197H87.9557V14.9967H89.6637C90.9752 14.9967 91.7072 14.3104 91.7072 13.2277C91.7072 12.1449 90.9752 11.5197 89.6637 11.5197ZM97.538 20.5172H95.403V9.56765H97.538V20.5172ZM104.395 17.0859V12.3737H106.5V20.5172H104.563V19.4497C104.121 20.1664 103.221 20.6697 102.184 20.6697C100.552 20.6697 99.3626 19.6784 99.3626 17.5587V12.3737H101.482V17.1469C101.482 18.2907 102.047 18.7939 102.901 18.7939C103.663 18.7939 104.395 18.1839 104.395 17.0859ZM111.866 23.6129C109.67 23.6129 108.206 22.4234 108.114 20.5477H110.158C110.249 21.4779 110.844 21.9659 111.851 21.9659C113.025 21.9659 113.635 21.3407 113.635 20.1664V18.9769C113.193 19.7547 112.354 20.2122 111.363 20.2122C109.365 20.2122 107.87 18.5194 107.87 16.2167C107.87 13.8529 109.273 12.2212 111.286 12.2212C112.384 12.2212 113.208 12.6482 113.803 13.4869V12.3737H115.739V20.1359C115.739 22.3014 114.275 23.6129 111.866 23.6129ZM109.99 16.2167C109.99 17.5434 110.676 18.3822 111.774 18.3822C112.888 18.3822 113.62 17.5129 113.62 16.2319C113.62 14.9052 112.888 14.0512 111.774 14.0512C110.692 14.0512 109.99 14.8899 109.99 16.2167ZM120.108 10.4827C120.108 11.1994 119.528 11.7332 118.689 11.7332C117.866 11.7332 117.286 11.1994 117.286 10.4827C117.286 9.7354 117.866 9.20165 118.689 9.20165C119.528 9.20165 120.108 9.7354 120.108 10.4827ZM119.772 20.5172H117.652V12.3737H119.772V20.5172ZM123.778 16.0794V20.5172H121.659V12.3737H123.611V13.5327C124.205 12.7244 125.044 12.2212 126.112 12.2212C127.743 12.2212 128.872 13.2887 128.872 15.2559V20.5172H126.767V15.9727C126.767 14.7679 126.295 14.0969 125.334 14.0969C124.495 14.0969 123.778 14.7679 123.778 16.0794ZM137.576 17.9094C137.576 19.6174 136.28 20.6697 133.962 20.6697C131.644 20.6697 130.348 19.5564 130.18 17.7417H132.208C132.223 18.5804 132.94 19.1142 133.992 19.1142C134.816 19.1142 135.441 18.8549 135.441 18.2754C135.441 17.7569 135.106 17.5434 134.328 17.3909L132.864 17.1164C131.4 16.8572 130.515 16.0489 130.515 14.7832C130.515 13.2734 131.812 12.2212 133.84 12.2212C135.883 12.2212 137.286 13.3039 137.439 15.0577H135.411C135.334 14.2647 134.74 13.7767 133.84 13.7767C133.062 13.7767 132.544 14.0664 132.544 14.5849C132.544 15.0729 132.879 15.2712 133.611 15.4084L135.182 15.6982C136.768 16.0032 137.576 16.7352 137.576 17.9094Z" fill="black"/>
<path d="M141.509 19.1599C141.509 19.9987 140.93 20.5934 140.091 20.5934C139.252 20.5934 138.657 19.9987 138.657 19.1599C138.657 18.3059 139.252 17.7112 140.091 17.7112C140.93 17.7112 141.509 18.3059 141.509 19.1599Z" fill="#A359FF"/>
</svg>
